<?xml version="1.0" encoding="UTF-8"?>
<!DOCTYPE svg PUBLIC "-//W3C//DTD SVG 1.1//EN" "http://www.w3.org/Graphics/SVG/1.1/DTD/svg11.dtd">
<!-- Creator: CorelDRAW -->
<svg xmlns="http://www.w3.org/2000/svg" xml:space="preserve" width="200mm" height="200mm" version="1.1" style="shape-rendering:geometricPrecision; text-rendering:geometricPrecision; image-rendering:optimizeQuality; fill-rule:evenodd; clip-rule:evenodd"
viewBox="0 0 20000 20000"
 xmlns:xlink="http://www.w3.org/1999/xlink"
 xmlns:xodm="http://www.corel.com/coreldraw/odm/2003">
 <defs>
  <style type="text/css">
   <![CDATA[
    .fil0 {fill:#2B2A29}
   ]]>
  </style>
 </defs>
 <g id="Слой_x0020_1">
  <metadata id="CorelCorpID_0Corel-Layer"/>
  <g id="_1937023137712">
   <polygon class="fil0" points="10474.31,10403.77 10468.23,15007.6 12372.32,15007.49 12372.56,14055.38 11896.21,14055.31 11896.31,14531.14 10944.34,14531.28 10944.55,13579.62 11420.34,13579.51 11420.59,13103.4 10944.34,13103.3 10944.58,10772.22 11895.82,10531.46 11896.31,11675.67 12372.32,11675.53 12372.39,9920.07 "/>
   <path class="fil0" d="M7136.4 5963.75l475.97 -0.1 0.25 -475.9 951.76 -0.11 0 743.61c0,240.62 -332.57,367.5 -561.56,684.23 227.93,311.56 561.49,448.88 561.49,684.26l-2.35 1841.34 -944.7 239.04 -4.64 -860.66 -476.36 -0.07 -0.1 1470.85 1903.42 -485 1.02 -2413.76c-0.11,-203.12 -271.23,-331.66 -360.65,-476 54.46,-87.35 123.79,-143.71 200.77,-219.26 84.47,-82.85 159.88,-109.41 159.88,-256.71l0 -1427.98 -1904.34 -0.1 0.14 952.32z"/>
   <polygon class="fil0" points="8089.43,11017.76 8088.38,15007.6 9992.36,15007.49 9992.61,14055.38 9516.25,14055.31 9516.36,14531.14 8564.38,14531.28 8564.59,13579.62 9040.35,13579.51 9040.63,13103.4 8564.38,13103.3 8565.19,11383.4 9508.59,11145.1 9516.89,12151.64 9992.36,12151.53 9992.61,10532.02 "/>
   <path class="fil0" d="M9516.36 5963.75l476 -0.1 0.21 -475.9 951.77 -0.11 0 743.61c0,240.62 -332.58,367.5 -561.57,684.23 185.99,254.22 542.98,450.07 562.52,653.03 32.92,342.2 -1.3,892.69 -0.95,1258.19l-950.5 241.36 -1.27 -724.6 -476.32 -0.07 1.55 1337.08 1894.64 -484.86 8.11 -1804.13c-0.1,-203.12 -271.19,-331.66 -360.64,-476 144.44,-231.63 360.64,-264.55 360.64,-475.97l0 -1427.98 -1904.3 -0.1 0.11 952.32z"/>
   <polygon class="fil0" points="14276.51,9922.18 14275.78,9428.18 12848.39,9789.89 12848.96,10283.46 13323.98,10167.05 13324.08,15007.53 13800.3,15007.49 13800.54,14977.62 13800.9,10038.8 "/>
   <path class="fil0" d="M5708.28 5127.03l0.11 492.55 475.23 -118.1 1.09 5034.12 376.07 -90.19c123.58,-46.28 57.38,11.77 99.9,-78.96l-0.04 -5354.92c-154.35,-0.28 -380.81,-13.46 -526.07,10.09 -138.48,22.45 -289.71,75.54 -426.29,105.41z"/>
   <path class="fil0" d="M11896.31 5963.75l476.01 -0.1 0.21 -475.9 947.83 2.91 -816.24 3415.1 515.85 -121.82c149.47,-557.8 264.02,-1123.44 400.25,-1684.13 231.94,-954.75 380.18,-1208.23 380.32,-2088.28l-1904.33 -0.1 0.1 952.32z"/>
   <polygon class="fil0" points="6184.18,15007.49 7612.58,15007.49 7612.62,14531.28 6660.64,14531.38 6659.59,11385.08 6184.82,11503.46 6184.43,14918.14 "/>
  </g>
 </g>
</svg>
